<svg xmlns="http://www.w3.org/2000/svg" width="100.484" height="107.531" viewBox="0 0 100.484 107.531">
    <defs>
        <style>
            .cls-2,.cls-4{fill:#fff;stroke:#2d2d2d;stroke-miterlimit:10}.cls-4{fill:#c7dcff}
        </style>
    </defs>
    <g id="Group_106807" transform="translate(-395.478 -598.502)">
        <g id="Group_106806">
            <path id="Path_109896" fill="#f6ffdf" d="M36.712 94.9a120.25 120.25 0 0 1-17.167-14.29A120 120 0 0 1 5.58 63.771 19.609 19.609 0 0 1 0 50.242a19.077 19.077 0 0 1 5.58-13.53A164.295 164.295 0 0 1 36.712 5.58 19.623 19.623 0 0 1 50.242 0a19.074 19.074 0 0 1 13.53 5.58A186.71 186.71 0 0 1 79.5 19.482a187.106 187.106 0 0 1 15.4 17.23 19.6 19.6 0 0 1 5.58 13.529 19.075 19.075 0 0 1-5.58 13.53A186.052 186.052 0 0 1 78.721 81.79a187.135 187.135 0 0 1-14.95 13.11 19.763 19.763 0 0 1-8.228 4.841 18.827 18.827 0 0 1-5.3.739 19.848 19.848 0 0 1-6.585-1.28 21.258 21.258 0 0 1-6.946-4.3z" transform="translate(395.478 598.502)"/>
            <g id="Group_106690" transform="translate(4.025)">
                <g id="Group_106689">
                    <g id="Group_106688" transform="translate(-682.733 781.488)">
                        <path id="Path_166536" d="M1087.263-76.916c-8.927-3.765-6.7-17.213-6.685-47.36.012-29.1-2.05-41.927 6.685-45.651 2.553-1.088 7.875-1.071 18.517-1.027 9.761.036 14.645.057 16.865 1.027 9.076 3.96 5.97 18.012 5.97 46.247 0 28.555 3.163 42.819-5.97 46.764-2.167.933-7.271.947-17.481.947-10.435-.004-15.656 0-17.901-.947z" class="cls-2"/>
                        <circle id="Ellipse_13531" cx="5.366" cy="5.366" r="5.366" fill="#ffabaf" stroke="#2d2d2d" stroke-miterlimit="10" transform="translate(1110.245 -157.054)"/>
                        <circle id="Ellipse_13532" cx="5.366" cy="5.366" r="5.366" class="cls-2" transform="translate(1089.541 -157.054)"/>
                        <circle id="Ellipse_13533" cx="5.366" cy="5.366" r="5.366" class="cls-2" transform="translate(1110.245 -138.923)"/>
                        <circle id="Ellipse_13534" cx="5.366" cy="5.366" r="5.366" class="cls-4" transform="translate(1089.541 -138.923)"/>
                        <circle id="Ellipse_13535" cx="5.366" cy="5.366" r="5.366" class="cls-2" transform="translate(1110.245 -119.812)"/>
                        <circle id="Ellipse_13535-2" cx="5.366" cy="5.366" r="5.366" class="cls-2" transform="translate(1110.245 -100.579)"/>
                        <circle id="Ellipse_13536" cx="5.366" cy="5.366" r="5.366" class="cls-2" transform="translate(1089.541 -119.812)"/>
                        <circle id="Ellipse_13538" cx="5.366" cy="5.366" r="5.366" class="cls-4" transform="translate(1089.541 -100.579)"/>
                    </g>
                    <g id="Group_106687" transform="translate(3 3.435)">
                        <g id="Group_106686" transform="translate(422 649)">
                            <path id="Path_77484" fill="#fff" stroke="#000" d="M650.787 583.123a3 3 0 0 1 2.942-2.716 28.089 28.089 0 0 0 9.608-1.67 24.858 24.858 0 0 0 5.241-3.135l3.011-2.278a3.308 3.308 0 0 1 4.2.127 32.347 32.347 0 0 0 7.643 5.159 4.831 4.831 0 0 0 .53.221 28.085 28.085 0 0 0 9.357 1.574 3 3 0 0 1 2.93 2.7c.611 5.448 1.341 17.646-2.9 26.261-4.636 9.428-15.215 14.593-18.75 16.106a2.943 2.943 0 0 1-2.358 0c-3.492-1.517-13.9-6.68-18.492-16.1-4.205-8.62-3.54-20.787-2.962-26.249z" transform="translate(-650.361 -572.632)"/>
                            <g id="Group_106685" transform="translate(10.96 17.336)">
                                <path id="Path_186343" fill="#d1ed7a" stroke="#2d2d2d" stroke-miterlimit="10" d="M668.907 609.5a2.207 2.207 0 0 1-1.459-.549 21.074 21.074 0 0 1-5.211-6.951 2.212 2.212 0 1 1 4.01-1.866 16.667 16.667 0 0 0 2.9 4.31c3.168-2.2 6.3-4.49 9.327-6.826 2.516-1.94 5.027-3.962 7.462-6.008a2.212 2.212 0 0 1 2.845 3.39c-2.482 2.086-5.041 4.147-7.606 6.124-3.569 2.753-7.277 5.445-11.022 8a2.21 2.21 0 0 1-1.246.376z" transform="translate(-662.029 -591.09)"/>
                            </g>
                        </g>
                    </g>
                </g>
            </g>
        </g>
    </g>
</svg>
