<svg xmlns="http://www.w3.org/2000/svg" width="18" height="18" viewBox="0 0 18 18">
    <g fill="none" fill-rule="evenodd" opacity=".803">
        <path stroke="#FFF" d="M9.473 2.232l.4.48c.17.212.466.334.754.334a.882.882 0 0 0 .386-.084l.56-.26a.702.702 0 0 1 .287-.064c.269 0 .498.174.572.464l.14.6c.1.39.51.72.92.72h.63c.41.01.68.33.59.73l-.13.58c-.1.4.14.87.51 1.04l.56.27c.37.18.46.59.2.9l-.38.48c-.25.32-.25.84 0 1.159l.38.47c.26.32.17.72-.2.9l-.56.27c-.37.18-.61.65-.51 1.04l.13.6c.09.39-.18.72-.59.72l-.63.01c-.41 0-.82.31-.92.71l-.14.59c-.074.288-.302.468-.57.468a.68.68 0 0 1-.29-.069l-.56-.26a.916.916 0 0 0-.382-.08c-.289 0-.586.121-.757.34l-.4.47c-.13.16-.3.24-.47.24-.17 0-.34-.08-.47-.24l-.4-.47c-.17-.219-.468-.34-.76-.34a.954.954 0 0 0-.389.08l-.56.26a.654.654 0 0 1-.285.069.578.578 0 0 1-.565-.469l-.14-.59c-.1-.4-.51-.71-.92-.71l-.64-.01c-.4 0-.67-.33-.579-.72l.13-.6c.1-.39-.14-.86-.51-1.04l-.56-.27c-.37-.18-.47-.58-.21-.9l.39-.469c.25-.32.25-.84 0-1.16l-.39-.48c-.26-.31-.16-.72.21-.9l.56-.27c.37-.17.61-.64.51-1.04l-.13-.58c-.09-.4.18-.72.58-.729h.64c.41 0 .82-.33.92-.72l.14-.6c.066-.29.3-.464.567-.464.091 0 .187.02.282.064l.56.26a.919.919 0 0 0 .393.085c.29 0 .586-.124.757-.335l.4-.48c.13-.155.3-.232.47-.232.17 0 .34.077.47.232z"/>
        <path fill="#FFF" d="M11.2 10.228a.908.908 0 0 0-1.27 0 .874.874 0 0 0 0 1.243.921.921 0 0 0 1.27 0 .862.862 0 0 0 0-1.243M8.058 7.77a.853.853 0 0 0 0-1.235.9.9 0 0 0-1.264 0 .865.865 0 0 0 0 1.235.913.913 0 0 0 1.264 0M10.65 6.4a.535.535 0 0 0-.742.163l-2.845 4.336a.52.52 0 0 0 .162.727.574.574 0 0 0 .297.085c.17 0 .353-.085.452-.24l2.845-4.35a.514.514 0 0 0-.17-.72"/>
    </g>
</svg>
